<?xml version="1.0" encoding="utf-8"?><svg xmlns="http://www.w3.org/2000/svg" xmlns:xlink="http://www.w3.org/1999/xlink" viewBox="0 0 723.61 142.19"><defs><style>.cls-1{fill:url(#linear-gradient);}.cls-2{fill:url(#linear-gradient-2);}.cls-3{fill:#db322c;}.cls-4{fill:url(#linear-gradient-3);}.cls-5{fill:url(#linear-gradient-4);}.cls-6{fill:url(#linear-gradient-5);}.cls-7{fill:#209b57;}.cls-8{fill:#28282a;}</style><linearGradient id="linear-gradient" x1="17.13" y1="127.01" x2="80.52" y2="44.51" gradientUnits="userSpaceOnUse"><stop offset="0" stop-color="#dd402b"/><stop offset="1" stop-color="#d5202d"/></linearGradient><linearGradient id="linear-gradient-2" x1="0.09" y1="113.83" x2="-0.06" y2="113.98" gradientUnits="userSpaceOnUse"><stop offset="0" stop-color="#ea6332"/><stop offset="0.21" stop-color="#e44c32"/><stop offset="0.51" stop-color="#de3333"/><stop offset="0.78" stop-color="#da2433"/><stop offset="1" stop-color="#d91f33"/></linearGradient><linearGradient id="linear-gradient-3" x1="57.84" y1="114.75" x2="95.27" y2="10.52" gradientUnits="userSpaceOnUse"><stop offset="0" stop-color="#de3834"/><stop offset="1" stop-color="#e54f36"/></linearGradient><linearGradient id="linear-gradient-4" x1="87.58" y1="5.15" x2="-52.18" y2="152.75" xlink:href="#linear-gradient-2"/><linearGradient id="linear-gradient-5" x1="14.86" y1="158.22" x2="62.2" y2="96.61" xlink:href="#linear-gradient"/></defs><title>Asset 3</title><g id="Layer_2" data-name="Layer 2"><g id="Layer_1-2" data-name="Layer 1"><polygon class="cls-1" points="97.65 57.67 97.57 113.61 97.57 114 49 141.94 48.74 142.09 0.09 113.9 0 113.85 0.08 57.52 48.91 29.43 49 29.48 97.65 57.67"/><polygon class="cls-2" points="0.09 113.9 0 113.95 0 113.85 0.09 113.9"/><polygon class="cls-3" points="49.04 85.76 49.04 85.76 49.04 85.76 49.04 85.76"/><polygon class="cls-4" points="97.69 57.76 97.69 57.77 97.61 113.7 49.04 85.76 49.04 29.57 97.69 57.76"/><polygon class="cls-5" points="49.04 29.57 49.04 85.76 0.04 114.05 0.04 114.05 0.12 57.62 0.12 57.61 48.95 29.52 49.04 29.57"/><polygon class="cls-6" points="97.61 113.7 97.61 114.1 49.04 142.04 48.78 142.19 0.04 113.95 49.04 85.76 97.61 113.7"/><path class="cls-7" d="M51.2,24S51,9.59,68.25,2.16c11.32-4.87,20.09,0,20.09,0s1,16.22-20.34,22.89A23.16,23.16,0,0,1,51.2,24Z"/><path class="cls-7" d="M46.63,24s.1-6.92-8.21-10.5a11.56,11.56,0,0,0-9.67,0s-.49,7.81,9.79,11A11.2,11.2,0,0,0,46.63,24Z"/><path class="cls-8" d="M150.8,66.64H134.63V58.28H176.9v8.36H160.73v47.64H150.8Z"/><path class="cls-8" d="M193.79,58.28h11.64l18.26,56H213.17l-8.53-29.8c-1.78-5.92-3.42-12.31-5.07-18.46h-.34c-1.54,6.2-3.18,12.54-5,18.46l-8.59,29.8H175.53Zm-7.47,33h26.37v7.79H186.32Z"/><path class="cls-8" d="M230.09,58.28H240.3l17.4,31.48,5.79,11.95h.34c-.48-5.79-1.27-12.88-1.27-19.11V58.28H272v56H261.81l-17.4-31.53-5.79-11.9h-.34c.48,5.93,1.26,12.68,1.26,18.91v24.52h-9.45Z"/><path class="cls-8" d="M283.31,86.47c0-18.32,11.62-29.22,26.52-29.22a23.06,23.06,0,0,1,16.92,7.09l-5.31,6.41a15.17,15.17,0,0,0-11.31-4.87c-9.93,0-16.61,7.71-16.61,20.28,0,12.78,5.93,20.52,17.16,20.52,3.12,0,6.2-.89,8-2.47V92.12H308.11V84h19.46v24.7c-3.73,3.76-10.21,6.64-17.88,6.64C294.58,115.31,283.31,105,283.31,86.47Z"/><path class="cls-8" d="M340,58.28h33.71v8.36H350V81h20.14v8.36H350v16.58h24.62v8.35H340Z"/><path class="cls-8" d="M386.1,58.28H396v47.65h23.26v8.35H386.1Z"/><path class="cls-8" d="M423.48,86.06c0-18.12,10.11-28.81,24.7-28.81s24.7,10.74,24.7,28.81-10.11,29.25-24.7,29.25S423.48,104.18,423.48,86.06Zm39.19,0c0-12.57-5.69-20.18-14.49-20.18s-14.49,7.61-14.49,20.18,5.69,20.62,14.49,20.62S462.67,98.63,462.67,86.06Z"/><path class="cls-8" d="M486,86c0-17.9,10.07-29.13,25-29.13a20.37,20.37,0,0,1,15.38,6.74L524,66.21a16.74,16.74,0,0,0-13-5.81c-12.93,0-20.89,9.85-20.89,25.51s7.55,25.82,20.41,25.82c5.09,0,9.89-1.57,12.61-4.26V89.9H509.68V86.54h17.23v22.38c-3.48,3.77-9.27,6.39-16.69,6.39C495.72,115.31,486,103.89,486,86Z"/><path class="cls-8" d="M553.59,57.85h3.93l19.89,56.43h-4.18L562,81.06c-2.29-6.7-4.28-12.61-6.27-19.49h-.34c-2,6.88-4,12.79-6.25,19.49l-11.42,33.22h-4ZM542.78,91.62h25.3v3.29h-25.3Z"/><path class="cls-8" d="M586.29,57.85h5.59L603.66,91c1.49,4.16,3,8.36,4.45,12.53h.35c1.49-4.17,2.8-8.37,4.29-12.53L624.5,57.85h5.59v56.43h-3.81V77.19c0-4.58.28-10.53.5-15.24h-.34l-4.39,12.58-12.17,33.6h-3.41l-12.25-33.6L589.77,62h-.34c.22,4.71.49,10.66.49,15.24v37.09h-3.63Z"/><path class="cls-8" d="M646.75,57.85h30.87v3.39H650.68V82.62h22.63V86H650.68v24.88h27.8v3.39H646.75Z"/><path class="cls-8" d="M686.49,106.81,689,104.1a22.07,22.07,0,0,0,16.56,7.63c8.61,0,14-4.61,14-11.34,0-7-4.6-9.29-10.15-11.79l-8.56-3.83c-4.91-2.17-11.45-5.68-11.45-14,0-8.19,7-13.9,16.41-13.9a21.59,21.59,0,0,1,15.72,6.75l-2.28,2.62a18,18,0,0,0-13.44-5.8c-7.45,0-12.45,4-12.45,10.09,0,6.59,5.63,9.07,9.76,10.89l8.54,3.81c6.32,2.81,11.88,6.3,11.88,14.93s-7.11,15.19-18.06,15.19A24.82,24.82,0,0,1,686.49,106.81Z"/></g></g></svg>